<svg width="42" height="42" viewBox="0 0 42 42" fill="none" xmlns="http://www.w3.org/2000/svg">
<path fill-rule="evenodd" clip-rule="evenodd" d="M36.9249 14.007C36.8257 14.0012 36.7201 13.9988 36.6081 14H32.1894C28.5704 14 25.4746 16.849 25.4746 20.5625C25.4746 24.276 28.5721 27.125 32.1894 27.125H36.6081C36.7201 27.1262 36.8263 27.1238 36.9266 27.118C37.6704 27.0731 38.3725 26.7594 38.9022 26.2353C39.4318 25.7111 39.7528 25.0123 39.8054 24.269C39.8124 24.164 39.8124 24.0502 39.8124 23.9452V17.1797C39.8124 17.0747 39.8124 16.961 39.8054 16.856C39.7528 16.1127 39.4318 15.4139 38.9022 14.8897C38.3725 14.3656 37.6687 14.0518 36.9249 14.007ZM31.8026 22.3125C32.7336 22.3125 33.4879 21.5285 33.4879 20.5625C33.4879 19.5965 32.7336 18.8125 31.8026 18.8125C30.8699 18.8125 30.1156 19.5965 30.1156 20.5625C30.1156 21.5285 30.8699 22.3125 31.8026 22.3125Z" fill="#0098F1"/>
<path fill-rule="evenodd" clip-rule="evenodd" d="M36.6065 29.75C36.667 29.7476 36.7272 29.7594 36.7823 29.7847C36.8373 29.8099 36.8857 29.8477 36.9233 29.8951C36.961 29.9425 36.987 29.9981 36.9991 30.0574C37.0113 30.1168 37.0093 30.1781 36.9932 30.2365C36.6432 31.4825 36.085 32.5465 35.1907 33.439C33.88 34.7515 32.2192 35.3307 30.1683 35.6073C28.1733 35.875 25.627 35.875 22.4105 35.875H18.7145C15.498 35.875 12.95 35.875 10.9568 35.6073C8.90575 35.3307 7.245 34.7497 5.93425 33.4407C4.62525 32.13 4.04425 30.4692 3.76775 28.4183C3.5 26.4233 3.5 23.877 3.5 20.6605V20.4645C3.5 17.248 3.5 14.7 3.76775 12.705C4.04425 10.654 4.62525 8.99325 5.93425 7.6825C7.245 6.3735 8.90575 5.7925 10.9568 5.516C12.9517 5.25 15.498 5.25 18.7145 5.25H22.4105C25.627 5.25 28.175 5.25 30.1683 5.51775C32.2192 5.79425 33.88 6.37525 35.1907 7.68425C36.085 8.58025 36.6432 9.6425 36.9932 10.8885C37.0093 10.9469 37.0113 11.0082 36.9991 11.0676C36.987 11.1269 36.961 11.1825 36.9233 11.2299C36.8857 11.2773 36.8373 11.3151 36.7823 11.3403C36.7272 11.3656 36.667 11.3774 36.6065 11.375H32.1895C27.2247 11.375 22.8498 15.295 22.8498 20.5625C22.8498 25.83 27.2247 29.75 32.1895 29.75H36.6065ZM10.0625 12.25C9.7144 12.25 9.38056 12.3883 9.13442 12.6344C8.88828 12.8806 8.75 13.2144 8.75 13.5625C8.75 13.9106 8.88828 14.2444 9.13442 14.4906C9.38056 14.7367 9.7144 14.875 10.0625 14.875H17.0625C17.4106 14.875 17.7444 14.7367 17.9906 14.4906C18.2367 14.2444 18.375 13.9106 18.375 13.5625C18.375 13.2144 18.2367 12.8806 17.9906 12.6344C17.7444 12.3883 17.4106 12.25 17.0625 12.25H10.0625Z" fill="#0098F1"/>
</svg>
